<svg width="15" height="26" xmlns="http://www.w3.org/2000/svg" fill="none">

 <g>
  <title>Layer 1</title>
  <path transform="rotate(-180 7.55338 12.9887)" id="svg_1" fill="#F2785C" d="m0.92435,1.0675c-0.35151,0.35161 -0.54898,0.82844 -0.54898,1.32562c0,0.49719 0.19747,0.97401 0.54898,1.32563l9.28125,9.28125l-9.28125,9.2812c-0.34155,0.3537 -0.53054,0.8273 -0.52627,1.3189c0.00427,0.4916 0.20146,0.9619 0.54911,1.3096c0.34764,0.3476 0.81791,0.5448 1.30953,0.5491c0.49162,0.0042 0.96525,-0.1848 1.31887,-0.5263l10.60691,-10.6069c0.3515,-0.3516 0.5489,-0.8284 0.5489,-1.3256c0,-0.4972 -0.1974,-0.974 -0.5489,-1.3256l-10.60691,-10.6069c-0.35161,-0.35151 -0.82844,-0.54898 -1.32562,-0.54898c-0.49718,0 -0.97401,0.19747 -1.32562,0.54898z"/>
 </g>
</svg>