<svg width="88" height="72" viewBox="0 0 88 72" fill="none" xmlns="http://www.w3.org/2000/svg">
<path d="M11.9357 3.75832L37.2394 22.0265C37.2394 22.0265 42.6533 25.7419 37.5457 28.3504C32.4562 30.9331 19.3854 37.257 19.3854 37.257L6.47681 32.6664L0 35.4122L11.4222 44.8595L11.5123 59.5581L18.2234 56.7179L22.6733 44.3017C22.6733 44.3017 36.3386 39.2907 41.7615 37.4029C47.2114 35.5581 46.4817 41.8734 46.4817 41.8734L43.7973 72L52.7153 68.2245L67.3985 27.5781C67.3985 27.5781 75.1815 23.9742 80.6584 20.808C86.1263 17.6418 88 12.3904 88 12.3904C88 12.3904 82.6672 10.2024 76.5237 11.9614C70.3802 13.7032 62.372 16.8094 62.372 16.8094L20.8267 0L11.9357 3.75832Z" fill="#0D606F"/>
</svg>
