<svg width="80" height="40" xmlns="http://www.w3.org/2000/svg" xmlns:xlink="http://www.w3.org/1999/xlink">
 <title>rs_school_js</title>
 <defs>
  <ellipse id="SVGID_1_" transform="rotate(-37.001 420.46 67.88)" cx="420.5" cy="67.9" rx="63" ry="51.8"/>
 </defs>
 <clipPath id="SVGID_2_">
  <use xlink:href="#SVGID_1_" overflow="visible" id="svg_1"/>
 </clipPath>
 <g>
  <title>Layer 1</title>
  <g class="st1" clip-path="url(#SVGID_2_)" id="svg_7">
   <path transform="rotate(-37.001 204.82 62.353)" class="st0" d="m114.9,-20.2l179.8,0l0,165.1l-179.8,0l0,-165.1z" fill="#fff" id="svg_8"/>
   <g id="Layer_2_1_">
    <defs transform="translate(-216 -6)">
     <path id="SVGID_3_" transform="rotate(-37.001 420.82 68.353)" d="m330.9,-14.2l179.8,0l0,165.1l-179.8,0l0,-165.1z"/>
    </defs>
    <clipPath transform="translate(-216 -6)" id="SVGID_4_">
     <use x="-216" y="-6" xlink:href="#SVGID_3_" overflow="visible" id="svg_9"/>
    </clipPath>
    <g id="Layer_1-2" class="st2" clip-path="url(#SVGID_4_)">
     <ellipse transform="rotate(-37.001 204.46 61.88)" class="st0" cx="204.5" cy="61.9" rx="63" ry="51.8" fill="#fff" id="svg_10"/>
     <defs transform="translate(-216 -6)">
      <ellipse id="SVGID_5_" transform="rotate(-37.001 420.46 67.88)" cx="420.5" cy="67.9" rx="63" ry="51.8"/>
     </defs>
     <clipPath transform="translate(-216 -6)" id="SVGID_6_">
      <use x="-216" y="-6" xlink:href="#SVGID_5_" overflow="visible" id="svg_11"/>
     </clipPath>
     <g class="st3" clip-path="url(#SVGID_6_)" id="svg_12">
      <path transform="rotate(-37 204.799 62.802)" class="st0" d="m141.8,11l125.9,0l0,103.7l-125.9,0l0,-103.7z" fill="#fff" id="svg_13"/>
      <defs transform="translate(-216 -6)">
       <path id="SVGID_7_" transform="rotate(-37 420.799 68.802)" d="m357.8,17l125.9,0l0,103.7l-125.9,0l0,-103.7z"/>
      </defs>
      <clipPath transform="translate(-216 -6)" id="SVGID_8_">
       <use x="-216" y="-6" xlink:href="#SVGID_7_" overflow="visible" id="svg_14"/>
      </clipPath>
      <g class="st4" clip-path="url(#SVGID_8_)" id="svg_15">
       <ellipse transform="rotate(-37.001 204.46 61.88)" class="st5" cx="204.5" cy="61.9" rx="63" ry="51.8" fill="#fff" stroke="#000" stroke-width="4" stroke-miterlimit="10" id="svg_16"/>
      </g>
      <path transform="rotate(-37 204.799 62.802)" class="st6" d="m141.8,11l125.9,0l0,103.7l-125.9,0l0,-103.7z" clip-path="url(#SVGID_8_)" fill="none" stroke="#000" stroke-width="4" stroke-miterlimit="10" id="svg_17"/>
      <ellipse transform="rotate(-37.001 204.46 61.88)" class="st7" cx="204.5" cy="61.9" rx="63" ry="51.8" fill="none" stroke="#000" stroke-width="4" stroke-miterlimit="10" id="svg_18"/>
      <path transform="rotate(-37 204.799 62.802)" class="st0" d="m141.8,11l125.9,0l0,103.7l-125.9,0l0,-103.7z" fill="#fff" id="svg_19"/>
      <defs transform="translate(-216 -6)">
       <path id="SVGID_9_" transform="rotate(-37 420.799 68.802)" d="m357.8,17l125.9,0l0,103.7l-125.9,0l0,-103.7z"/>
      </defs>
      <clipPath transform="translate(-216 -6)" id="SVGID_10_">
       <use x="-216" y="-6" xlink:href="#SVGID_9_" overflow="visible" id="svg_20"/>
      </clipPath>
      <g class="st8" clip-path="url(#SVGID_10_)" id="svg_21">
       <ellipse transform="rotate(-37.001 204.46 61.88)" class="st5" cx="204.5" cy="61.9" rx="63" ry="51.8" fill="#fff" stroke="#000" stroke-width="4" stroke-miterlimit="10" id="svg_22"/>
      </g>
      <path transform="rotate(-37 204.799 62.802)" class="st9" d="m141.8,11l125.9,0l0,103.7l-125.9,0l0,-103.7z" clip-path="url(#SVGID_10_)" fill="none" stroke="#000" stroke-width="4" stroke-miterlimit="10" id="svg_23"/>
      <path transform="rotate(-37.001 204.82 62.353)" class="st7" d="m114.9,-20.2l179.8,0l0,165.1l-179.8,0l0,-165.1z" fill="none" stroke="#000" stroke-width="4" stroke-miterlimit="10" id="svg_24"/>
     </g>
     <ellipse transform="rotate(-37.001 204.46 61.88)" class="st7" cx="204.5" cy="61.9" rx="63" ry="51.8" fill="none" stroke="#000" stroke-width="4" stroke-miterlimit="10" id="svg_25"/>
     <path d="m176.4,55.3l10,-7l12.3,17.5c2.1,2.8 3.7,5.8 4.9,9.1c0.7,2.5 0.5,5.2 -0.5,7.6c-1.3,3 -3.4,5.5 -6.2,7.3c-3.3,2.3 -6.1,3.6 -8.5,4c-2.3,0.4 -4.7,0 -6.9,-1c-2.4,-1.2 -4.5,-2.9 -6.1,-5.1l8.6,-8c0.7,1.1 1.6,2.1 2.6,2.9c0.7,0.5 1.5,0.8 2.4,0.8c0.7,0 1.4,-0.3 1.9,-0.7c1,-0.6 1.7,-1.8 1.6,-3c-0.3,-1.7 -1,-3.4 -2.1,-4.7l-14,-19.7zm30,11.1l9.1,-7.2c1,1.2 2.3,2.1 3.7,2.6c2,0.6 4.1,0.2 5.8,-1.1c1.2,-0.8 2.2,-1.9 2.6,-3.3c0.6,-1.8 -0.4,-3.8 -2.2,-4.4c-0.3,-0.1 -0.6,-0.2 -0.9,-0.2c-1.2,-0.1 -3.3,0.4 -6.4,1.7c-5.1,2.1 -9.1,2.9 -12.1,2.6c-2.9,-0.3 -5.6,-1.8 -7.2,-4.3c-1.2,-1.7 -1.8,-3.7 -1.9,-5.7c0,-2.3 0.6,-4.6 1.9,-6.5c1.9,-2.7 4.2,-5 7,-6.8c4.2,-2.9 7.9,-4.3 11.1,-4.3c3.2,0 6.2,1.5 9,4.6l-9,7.1c-1.8,-2.3 -5.2,-2.8 -7.5,-1l-0.3,0.3c-1,0.6 -1.7,1.5 -2.1,2.6c-0.3,0.8 -0.1,1.7 0.4,2.4c0.4,0.5 1,0.9 1.7,0.9c0.8,0.1 2.2,-0.3 4.2,-1.2c5,-2.1 8.8,-3.3 11.4,-3.7c2.2,-0.4 4.5,-0.2 6.6,0.7c1.9,0.8 3.5,2.2 4.6,3.9c1.4,2 2.2,4.4 2.3,6.9c0.1,2.6 -0.6,5.1 -2,7.3c-1.8,2.7 -4.1,5 -6.8,6.8c-5.5,3.8 -10,5.4 -13.6,4.8c-3.9,-0.6 -7.1,-2.6 -9.4,-5.5z" id="svg_26"/>
    </g>
   </g>
  </g>
  <text transform="rotate(12 16.8455 9.32243) matrix(0.835832 0 0 0.964151 8.90111 0.574139)" stroke="null" font-weight="bold" xml:space="preserve" text-anchor="start" font-family="'Piazzolla'" font-size="24" id="svg_31" y="18.605" x="-6.87387" stroke-width="0" fill="#ffffff">RS</text>
  <text xml:space="preserve" text-anchor="start" font-family="'Fraunces'" font-size="24" id="svg_32" y="39.00006" x="-0.79998" stroke-width="0" stroke="null" fill="#ffffff">School</text>
 </g>
</svg>